<mxfile host="app.diagrams.net" modified="2023-06-10T17:49:06.956Z" agent="Mozilla/5.0 (Macintosh; Intel Mac OS X 10_15_7) AppleWebKit/605.1.15 (KHTML, like Gecko) Version/16.5 Safari/605.1.15" version="21.3.8" etag="wNvqrGGXjP5ffvuClmTo" type="github">
  <diagram name="Halaman-1" id="NIxjFKEya0rReBz_A93r">
    <mxGraphModel>
      <root>
        <mxCell id="0" />
        <mxCell id="1" parent="0" />
      </root>
    </mxGraphModel>
  </diagram>
</mxfile>
